<svg width="20" height="20" viewBox="0 0 20 20" fill="none" xmlns="http://www.w3.org/2000/svg">
<path d="M9.99965 5.31855C7.45933 5.31855 5.35449 7.3871 5.35449 9.96371C5.35449 12.5403 7.42304 14.6089 9.99965 14.6089C12.5763 14.6089 14.6448 12.504 14.6448 9.96371C14.6448 7.42339 12.54 5.31855 9.99965 5.31855ZM9.99965 12.9395C8.36659 12.9395 7.02385 11.5968 7.02385 9.96371C7.02385 8.33065 8.36659 6.9879 9.99965 6.9879C11.6327 6.9879 12.9755 8.33065 12.9755 9.96371C12.9755 11.5968 11.6327 12.9395 9.99965 12.9395Z" fill="#517AF4"/>
<path d="M14.8263 6.2621C15.4076 6.2621 15.8788 5.79091 15.8788 5.20968C15.8788 4.62844 15.4076 4.15726 14.8263 4.15726C14.2451 4.15726 13.7739 4.62844 13.7739 5.20968C13.7739 5.79091 14.2451 6.2621 14.8263 6.2621Z" fill="#517AF4"/>
<path d="M17.5484 2.4879C16.6048 1.50806 15.2621 1 13.7379 1H6.2621C3.10484 1 1 3.10484 1 6.2621V13.7016C1 15.2621 1.50806 16.6048 2.52419 17.5847C3.50403 18.5282 4.81048 19 6.29839 19H13.7016C15.2621 19 16.5685 18.4919 17.5121 17.5847C18.4919 16.6411 19 15.2984 19 13.7379V6.2621C19 4.7379 18.4919 3.43145 17.5484 2.4879ZM17.4032 13.7379C17.4032 14.8629 17.004 15.7702 16.3508 16.3871C15.6976 17.004 14.7903 17.3306 13.7016 17.3306H6.29839C5.20968 17.3306 4.30242 17.004 3.64919 16.3871C2.99597 15.7339 2.66935 14.8266 2.66935 13.7016V6.2621C2.66935 5.17339 2.99597 4.26613 3.64919 3.6129C4.26613 2.99597 5.20968 2.66935 6.29839 2.66935H13.7742C14.8629 2.66935 15.7702 2.99597 16.4234 3.64919C17.0403 4.30242 17.4032 5.20968 17.4032 6.2621V13.7379Z" fill="#517AF4"/>
</svg>
